<svg fill="#000000" width="800px" height="800px" viewBox="0 0 24 24" xmlns="http://www.w3.org/2000/svg">
    <path d="M21.63,10.37,19,7.74V2H17V6.3L14.41,3.71,13,5.12,15.88,8H11.24L8.35,5.12,6.94,3.71,4.35,6.3,3,7.61,5.6,10.21,3,12.82,4.41,14.24,7,11.65l.71.7L3,17.06,4.41,18.48,9.12,13.76l4.47,4.47L12.17,19.65l-.71.7,2.13,2.13.7-.71,1.42,1.42-.71.7,2.13,2.12.7-.7,1.42,1.41.35.35.35-.35L21.63,21a1,1,0,0,0,0-1.41l-1.88-1.88L21.19,16.2l-1.42-1.42-1.48,1.48L14,11.91l1.29-1.29,2.3,2.3,1.41-1.41L16.41,9H20.1l2.53-2.53a1,1,0,0,0,0-1.41ZM8.41,10.24,7,8.82l-1.6,1.6L7,12.05Zm12.59,21,1.42-1.41-1.42-1.42-1.41,1.42Zm2.83-2.83L17,16.76l1.41-1.41,1.42,1.42Zm2.83-2.83L17,13.94l1.41-1.42,1.42,1.42Z"/>
</svg>